<svg width="189" height="190" viewBox="0 0 189 190" fill="none" xmlns="http://www.w3.org/2000/svg">
<g clip-path="url(#clip0_141_2)">
<path d="M94.5 190C146.691 190 189 147.467 189 95C189 42.5329 146.691 0 94.5 0C42.3091 0 0 42.5329 0 95C0 147.467 42.3091 190 94.5 190Z" fill="url(#paint0_radial_141_2)"/>
<path d="M46.9328 55.9453L47.1666 55.5557C47.388 55.1866 47.6539 54.8461 47.9582 54.5418C48.9454 53.5546 50.2843 53 51.6804 53H52H54C55.2806 53 56.5087 53.5087 57.4142 54.4142L57.7071 54.7071C57.9021 54.9021 58.1107 55.0831 58.3314 55.2485L60 56.5L62 58L62.9996 58.7497C63.6652 59.2489 64.3743 59.6872 65.1185 60.0592C65.7054 60.3527 66.3125 60.6042 66.935 60.8117L67.5 61C68.4987 61.3329 69.4726 61.7363 70.4142 62.2071L71.6854 62.8427C71.8949 62.9474 72.1115 63.0372 72.3337 63.1112C73.0996 63.3665 73.9163 63.4306 74.7127 63.2979L76.5 63C80.8194 62.0032 85.2379 61.5 89.6708 61.5H91.5H95.5H102C103.664 61.5 105.325 61.6375 106.966 61.911L107.5 62L111 62.5L112.72 62.7866C113.572 62.9286 114.434 63 115.298 63H116.764C118.234 63 119.685 62.6576 121 62L124.184 60.231C125.057 59.746 125.858 59.1418 126.564 58.4356C127.186 57.8142 127.881 57.2714 128.635 56.8193L130 56C131.332 55.3342 132.709 54.7637 134.121 54.2929L135 54L136.321 53.4715C137.1 53.16 137.931 53 138.77 53H140.439C141.118 53 141.77 53.2698 142.25 53.75C142.73 54.2302 143 54.8815 143 55.5607V57.5V59.5C143 60.3333 142.5 62.2 142.5 63C142.5 63.2921 142.3 63.7708 142.022 64.2852C141.177 65.8479 140.16 67.3505 139.5 69L138.5 72.5L138.047 74.3108C138.016 74.4365 138 74.5655 138 74.695C138 74.8965 137.962 75.0961 137.887 75.2832L137.401 76.4982C137.135 77.1633 136.955 77.8598 136.866 78.5707L136.5 81.5V84.5V86.9087C136.5 87.2177 136.949 89.1952 137 89.5L137.222 90.3872C137.406 91.1236 137.715 91.8228 138.136 92.4544C138.378 92.8172 138.655 93.1553 138.964 93.4637L140.5 95L140.769 95.269C141.584 96.0843 142.526 96.7629 143.557 97.2786C144.514 97.7568 145.536 98.0894 146.591 98.2652L146.935 98.3225C147.644 98.4406 148.361 98.5 149.08 98.5H152H154.5H156.293C156.746 98.5 157.18 98.6799 157.5 99C157.82 99.3201 158 99.7544 158 100.207V100.578C158 100.857 157.955 101.135 157.866 101.401L157.305 103.086C157.102 103.695 156.856 104.288 156.569 104.861L156 106L154.161 110.139C154.054 110.379 153.927 110.61 153.781 110.829L153.678 110.983C153.236 111.646 153 112.425 153 113.222C153 113.736 153.098 114.245 153.289 114.722L153.657 115.642C153.885 116.212 154.172 116.758 154.513 117.269L154.608 117.412C154.869 117.803 155.167 118.167 155.5 118.5L155.798 118.798C155.932 118.932 156.053 119.08 156.158 119.238C156.685 120.028 156.789 121.027 156.437 121.909L156.281 122.298C156.095 122.761 155.818 123.182 155.466 123.534L154 125L152 127L150 129L148 131L146 133L143.5 135L142 136L140.5 137L139 138L137.5 139L135.743 139.879C135.581 139.959 135.414 140.029 135.243 140.086C134.437 140.354 133.744 140.883 133.273 141.59L133 142L132.032 143.291C131.678 143.763 131.291 144.209 130.873 144.627C130.293 145.207 129.656 145.729 128.972 146.185L128.5 146.5C127.835 146.833 127.14 147.103 126.425 147.307L126.104 147.399C124.708 147.798 123.264 148 121.812 148H121H118H115.5H114H113.118C112.383 148 111.658 148.171 111 148.5L110.316 148.842C110.107 148.947 109.916 149.084 109.75 149.25C109.584 149.416 109.393 149.553 109.184 149.658L109.121 149.69C108.714 149.893 108.367 150.199 108.115 150.577L107.772 151.093C107.591 151.364 107.384 151.616 107.154 151.846L106.5 152.5L105.5 153.5L104.5 154.5L103.895 155.105C103.633 155.367 103.331 155.584 103 155.75L102.816 155.842C102.607 155.947 102.416 156.084 102.25 156.25C102.084 156.416 101.893 156.553 101.684 156.658L101 157L100 157.5C99.3424 157.829 98.6172 158 97.882 158H97H95.5H94H92.5H91.5H90H89H88H87.5811C86.5339 158 85.4935 157.831 84.5 157.5L83 157C82.0013 156.667 81.0274 156.264 80.0858 155.793L79.5 155.5L78 154.5L77.9702 154.48C76.9971 153.831 76.1415 153.022 75.4398 152.086C75.147 151.696 74.8268 151.327 74.4816 150.982L74.0419 150.542C73.6815 150.182 73.3576 149.786 73.0749 149.362L72.6518 148.728C72.551 148.577 72.4709 148.413 72.4135 148.24C72.1614 147.484 71.4927 146.944 70.7005 146.856L67.5 146.5H65L58.6194 146.044C58.2073 146.015 57.7984 145.95 57.3975 145.849C56.4752 145.619 55.6082 145.206 54.8476 144.636L54.5206 144.39C54.174 144.13 53.8462 143.846 53.5398 143.54L52 142L50.5685 140.282C49.8638 139.437 48.9917 138.746 48.0072 138.254C47.6695 138.085 47.3202 137.94 46.9621 137.821L46 137.5C45.0013 137.167 44.0274 136.764 43.0858 136.293L42.5 136C41.1753 135.338 39.9661 134.466 38.9189 133.419L38.4706 132.971C38.1573 132.657 37.8221 132.367 37.4676 132.101C36.4984 131.374 35.6795 130.466 35.0562 129.427L34.5 128.5L33.4658 127.121C33.1557 126.708 32.8165 126.317 32.451 125.951L32.4334 125.933C31.8135 125.313 31.2719 124.62 30.8209 123.868C30.2766 122.961 29.8696 121.978 29.613 120.952L29.5 120.5L29.1104 119.331C29.0373 119.112 29 118.882 29 118.651C29 117.932 29.3594 117.26 29.9577 116.862L30.2658 116.656C30.4216 116.552 30.5667 116.433 30.699 116.301L31.1858 115.814C31.3948 115.605 31.5825 115.376 31.7464 115.13C32.2378 114.393 32.5 113.527 32.5 112.642V112.472C32.5 111.83 32.3775 111.194 32.139 110.598L31.5 109L30.7154 107.431C30.572 107.144 30.4491 106.847 30.3477 106.543C30.1174 105.852 30 105.129 30 104.4V100.5C30 99.1193 31.1193 98 32.5 98H33H37.5C39.8093 98 42.0945 97.5309 44.217 96.6213L44.5 96.5C46.4562 95.5219 48.079 93.9867 49.1641 92.0878L49.5 91.5L50.5693 89.3614C50.8561 88.7879 51.1018 88.1947 51.3046 87.5863C51.7652 86.2045 52 84.7574 52 83.3008V81.5C52 79.5097 51.7226 77.5291 51.1758 75.6154L51 75L49.5 71.5L48.5 68.5L47.5 64.5L46.4168 61.6114C46.1412 60.8765 46 60.0979 46 59.313C46 58.1267 46.3224 56.9626 46.9328 55.9453Z" fill="#241818" stroke="#241818" stroke-linejoin="round"/>
<path d="M57.6342 117.618L52.8299 121.548C50.0011 123.863 45.9507 123.924 43.0536 121.695C42.0335 120.91 41.2215 119.887 40.6889 118.716L40.089 117.396C39.3713 115.817 39 114.103 39 112.368V111.422C39 110.158 39.2943 108.911 39.8596 107.781C40.9027 105.695 42.7905 104.156 45.0442 103.555L47.5046 102.899C48.4939 102.635 49.4291 102.2 50.2679 101.613L50.474 101.468C52.6839 99.9213 54 97.3934 54 94.6959V94.5843C54 92.5997 54.7397 90.6863 56.0747 89.2178C57.8983 87.2119 60.6156 86.2693 63.2895 86.7149L65.2634 87.0439C67.0627 87.3438 68.7663 88.062 70.2372 89.1406L74.3005 92.1204C75.0983 92.7054 75.8366 93.3672 76.5051 94.0965L79.4634 97.3237C80.4425 98.3918 81.825 99 83.2741 99C85.4992 99 87.4746 97.5762 88.1782 95.4653L88.8046 93.5862C89.2439 92.2683 90.2611 91.2232 91.5667 90.7485C93.5724 90.0191 95.8155 90.7816 96.9613 92.5821L97.8835 94.0313C98.2915 94.6724 98.5873 95.3784 98.7582 96.1188L99.6449 99.9612C99.8528 100.862 100.655 101.5 101.579 101.5C102.163 101.5 102.718 101.243 103.095 100.797L106.881 96.3223C107.624 95.4438 108.469 94.6562 109.397 93.9757L111.937 92.1125C114.285 90.3907 116.974 89.1897 119.823 88.5899L123.274 87.8633C124.406 87.625 125.58 87.6784 126.685 88.0186C129.547 88.8991 131.5 91.5432 131.5 94.5374V95V96.7399C131.5 99.7527 132.852 102.606 135.184 104.514C136.379 105.492 137.782 106.181 139.286 106.528L141.823 107.113C142.923 107.367 143.942 107.893 144.786 108.643L145.38 109.171C146.978 110.591 147.607 112.81 146.993 114.858C146.672 115.927 146.033 116.873 145.162 117.571L142.539 119.669C141.847 120.222 141.202 120.831 140.61 121.489L138.179 124.19C137.409 125.045 136.41 125.661 135.3 125.964C132.993 126.593 130.533 125.792 129.04 123.925L127.5 122L123.5 116.5L119.734 110.85C118.273 108.66 116.235 106.916 113.844 105.813L112.138 105.025C111.388 104.679 110.572 104.5 109.746 104.5C107.226 104.5 105.004 106.153 104.28 108.567L104.247 108.676C104.083 109.222 104 109.79 104 110.36V111.458C104 113.779 104.606 116.06 105.757 118.076L108 122L115.5 134L116.371 135.524C117.038 136.691 116.841 138.159 115.891 139.109C115.633 139.367 115.329 139.576 114.995 139.725L113.4 140.433C111.818 141.137 110.105 141.5 108.374 141.5H74H72.7656C71.9362 141.5 71.1212 141.284 70.4012 140.872C68.9164 140.024 68 138.445 68 136.734V136.007C68 134.704 68.4225 133.437 69.204 132.395L75.5 124L78.7869 119.518C80.2248 117.557 81 115.189 81 112.758V110.055C81 108.433 80.2914 106.893 79.0602 105.837C78.0534 104.974 76.7711 104.5 75.4451 104.5H73.9483C72.3418 104.5 70.761 104.903 69.3507 105.672L68.4717 106.152C66.8414 107.041 65.4116 108.257 64.2714 109.722L60.0835 115.107C59.3634 116.033 58.5419 116.875 57.6342 117.618Z" fill="#BB8C80" stroke="#BB8C80"/>
<path d="M74 142.933V143.457C74 144.472 74.2363 145.473 74.6902 146.38C74.8962 146.792 75.145 147.181 75.4327 147.541L77.9762 150.72C78.6566 151.571 79.4292 152.343 80.2798 153.024L80.8328 153.466C81.2763 153.821 81.7562 154.128 82.2643 154.382C83.0821 154.791 83.9636 155.058 84.8709 155.171L87.5 155.5L91.1724 155.834C92.3877 155.944 93.6111 155.932 94.8239 155.797C96.5983 155.6 98.3339 155.143 99.9748 154.439L101 154L101.075 153.955C102.685 152.989 104.172 151.828 105.5 150.5L107.034 148.966C107.674 148.326 108.206 147.587 108.611 146.778L109.053 145.894C109.347 145.306 109.5 144.658 109.5 144C109.5 142.673 109.323 141.351 108.974 140.07L108.955 140C108.327 137.698 107.175 135.572 105.59 133.789L105.419 133.596C104.477 132.536 103.403 131.602 102.223 130.816L101 130C99.3641 129.018 97.4923 128.5 95.5845 128.5H94.5H90.5H89.8541C87.6483 128.5 85.4729 129.014 83.5 130L82.3733 130.644C80.8038 131.541 79.4074 132.711 78.2501 134.1C77.7508 134.699 77.2985 135.336 76.8972 136.005L76 137.5L75.0805 139.033C74.6956 139.674 74.4078 140.369 74.2264 141.095C74.076 141.696 74 142.313 74 142.933Z" fill="#E3CCBF" stroke="#E3CCBF"/>
<path d="M50.6577 56.6141L50.6842 56.6053C50.8934 56.5355 51.1124 56.5 51.3329 56.5C51.7665 56.5 52.1889 56.6374 52.5395 56.8924L56.3842 59.6885C57.1268 60.2286 57.9128 60.7064 58.734 61.117L61.5 62.5L62.5 63L64.5844 64.2506C64.8604 64.4162 65.1151 64.6151 65.3427 64.8427C65.775 65.275 66.1006 65.8019 66.2939 66.3818L66.3896 66.6689C66.4627 66.8882 66.5 67.1178 66.5 67.349C66.5 68.0681 66.1406 68.7396 65.5423 69.1385L65.3002 69.2999C65.101 69.4327 64.8849 69.5384 64.6577 69.6141L64.3218 69.7261C63.7775 69.9075 63.266 70.1755 62.807 70.5198L61.5 71.5L59.6657 72.8757C59.5554 72.9585 59.4511 73.0489 59.3536 73.1464C58.807 73.693 58.0658 74 57.2929 74H56.5C55.5629 74 54.6878 73.5317 54.168 72.7519L53 71L51 67L50 64.5L49.4495 62.8486C49.1518 61.9554 49 61.02 49 60.0784V59.3776C49 59.1268 49.0308 58.877 49.0916 58.6336L49.204 58.1839C49.3884 57.4465 49.9367 56.8544 50.6577 56.6141Z" fill="#ECCFBD" stroke="#ECCFBD" stroke-linejoin="round"/>
<path d="M138.219 59.3554L138.231 59.3757C138.326 59.5364 138.394 59.7113 138.434 59.8938C138.512 60.2527 138.474 60.627 138.326 60.963L136.548 64.9934C136.336 65.4744 136.164 65.9721 136.034 66.4814L135.714 67.7335C135.439 68.8092 134.841 69.7747 134 70.5C133.673 70.8275 133.264 71.0616 132.815 71.1778L132.517 71.2551C131.898 71.4156 131.248 71.4141 130.63 71.2506L129.683 71.0003L128 70.3033L126.457 69.6985C126.314 69.6422 126.176 69.5718 126.046 69.4882C125.526 69.1535 125.16 68.626 125.03 68.0216L124.875 67.31C124.707 66.5343 124.938 65.7259 125.49 65.1557L126.731 63.8747L129.683 61.5017L131.573 60.2255L132.841 59.4737C133.527 59.067 134.274 58.7736 135.054 58.6047L135.634 58.479C135.841 58.434 136.054 58.4146 136.266 58.4213L136.658 58.4337C137.302 58.454 137.89 58.8017 138.219 59.3554Z" fill="#ECCFBD" stroke="#ECCFBD"/>
<path d="M72.5 117C74.9853 117 77 114.985 77 112.5C77 110.015 74.9853 108 72.5 108C70.0147 108 68 110.015 68 112.5C68 114.985 70.0147 117 72.5 117Z" fill="#DFE1E7"/>
<path d="M72.5 114C73.3284 114 74 113.328 74 112.5C74 111.672 73.3284 111 72.5 111C71.6716 111 71 111.672 71 112.5C71 113.328 71.6716 114 72.5 114Z" fill="#2A1A14"/>
<path d="M112.5 117C114.985 117 117 114.985 117 112.5C117 110.015 114.985 108 112.5 108C110.015 108 108 110.015 108 112.5C108 114.985 110.015 117 112.5 117Z" fill="#DFE1E7"/>
<path d="M112.5 114C113.328 114 114 113.328 114 112.5C114 111.672 113.328 111 112.5 111C111.672 111 111 111.672 111 112.5C111 113.328 111.672 114 112.5 114Z" fill="#241818"/>
<path d="M96.8047 136.914L96.7795 136.838C96.6005 136.302 96.2156 135.858 95.7095 135.605C95.5702 135.535 95.4238 135.481 95.2728 135.443L93.2421 134.936C92.0965 134.649 90.8998 134.633 89.747 134.89L88.105 135.254C87.3919 135.413 86.7591 135.821 86.3209 136.406C85.7985 137.102 85.5976 137.988 85.7683 138.842L85.7981 138.991C85.9298 139.649 86.2533 140.253 86.7279 140.728L87.5853 141.585C87.8596 141.86 88.0839 142.18 88.248 142.531L88.3628 142.777C89.5521 145.326 93.2107 145.223 94.2552 142.612C94.4167 142.208 94.6586 141.841 94.9661 141.534L95.5396 140.96C96.1658 140.334 96.5927 139.537 96.7664 138.668L96.8789 138.106C96.9582 137.709 96.9327 137.298 96.8047 136.914Z" fill="#2A1A14" stroke="#2A1A14"/>
<path d="M67 146.5L68.1652 150.19C69.3527 153.95 71.7886 157.192 75.0697 159.38C76.6785 160.452 78.4557 161.248 80.3273 161.733L83.221 162.483C88.3405 163.81 93.6941 163.961 98.8801 162.924L104.444 161.811C107.098 161.28 109.558 160.038 111.561 158.217C113.168 156.757 114.437 154.963 115.279 152.962L118 146.5" stroke="#384A61"/>
<path d="M74 162C75.6569 162 77 160.657 77 159C77 157.343 75.6569 156 74 156C72.3431 156 71 157.343 71 159C71 160.657 72.3431 162 74 162Z" fill="url(#paint1_radial_141_2)"/>
<path d="M108 163C109.657 163 111 161.657 111 160C111 158.343 109.657 157 108 157C106.343 157 105 158.343 105 160C105 161.657 106.343 163 108 163Z" fill="url(#paint2_radial_141_2)"/>
<path d="M91 167C92.6569 167 94 165.657 94 164C94 162.343 92.6569 161 91 161C89.3431 161 88 162.343 88 164C88 165.657 89.3431 167 91 167Z" fill="url(#paint3_radial_141_2)"/>
<path d="M64.429 31.868C64.317 31.868 64.213 31.836 64.117 31.772C64.029 31.708 63.961 31.58 63.913 31.388C63.865 31.188 63.841 30.896 63.841 30.512C63.841 29.712 63.917 28.92 64.069 28.136C64.221 27.352 64.437 26.616 64.717 25.928C64.997 25.232 65.329 24.62 65.713 24.092C66.105 23.556 66.537 23.136 67.009 22.832C67.489 22.528 67.997 22.376 68.533 22.376C69.117 22.376 69.577 22.556 69.913 22.916C70.249 23.268 70.417 23.772 70.417 24.428C70.417 25.036 70.245 25.54 69.901 25.94C69.565 26.34 69.097 26.54 68.497 26.54C68.393 26.54 68.281 26.532 68.161 26.516C68.041 26.492 67.917 26.46 67.789 26.42C68.277 27.236 68.765 27.944 69.253 28.544C69.741 29.144 70.237 29.684 70.741 30.164C71.253 30.636 71.773 31.092 72.301 31.532C72.381 31.604 72.441 31.676 72.481 31.748C72.521 31.812 72.541 31.888 72.541 31.976C72.541 32.112 72.509 32.212 72.445 32.276C72.389 32.34 72.269 32.372 72.085 32.372C71.885 32.372 71.637 32.284 71.341 32.108C71.053 31.932 70.737 31.692 70.393 31.388C70.049 31.084 69.701 30.74 69.349 30.356C68.997 29.972 68.657 29.572 68.329 29.156C68.009 28.732 67.721 28.32 67.465 27.92C67.209 27.512 67.005 27.136 66.853 26.792C66.709 26.448 66.637 26.156 66.637 25.916C66.637 25.756 66.677 25.632 66.757 25.544C66.837 25.448 66.945 25.4 67.081 25.4C67.257 25.4 67.417 25.424 67.561 25.472C67.713 25.52 67.873 25.544 68.041 25.544C68.481 25.544 68.829 25.432 69.085 25.208C69.349 24.976 69.481 24.596 69.481 24.068C69.481 23.604 69.169 23.372 68.545 23.372C68.113 23.372 67.697 23.544 67.297 23.888C66.897 24.224 66.529 24.708 66.193 25.34C65.865 25.972 65.593 26.732 65.377 27.62C65.161 28.5 65.021 29.484 64.957 30.572C64.941 30.948 64.905 31.228 64.849 31.412C64.801 31.596 64.741 31.72 64.669 31.784C64.605 31.84 64.525 31.868 64.429 31.868ZM74.7523 32.312C74.4483 32.312 74.1963 32.172 73.9963 31.892C73.8043 31.604 73.7083 31.232 73.7083 30.776C73.7083 30.352 73.8123 29.932 74.0203 29.516C74.2363 29.1 74.5203 28.7 74.8723 28.316C75.2243 27.932 75.6083 27.58 76.0243 27.26C76.4403 26.932 76.8563 26.648 77.2723 26.408C77.6963 26.168 78.0843 25.98 78.4363 25.844C78.7883 25.708 79.0683 25.64 79.2763 25.64C79.3883 25.64 79.4803 25.664 79.5523 25.712C79.6243 25.752 79.6603 25.828 79.6603 25.94C79.6603 26.012 79.6323 26.08 79.5763 26.144C79.5843 26.144 79.5923 26.144 79.6003 26.144C79.7763 26.144 79.8643 26.248 79.8643 26.456C79.8643 26.528 79.8363 26.676 79.7803 26.9C79.7243 27.116 79.6603 27.388 79.5883 27.716C79.5163 28.044 79.4523 28.408 79.3963 28.808C79.3403 29.2 79.3123 29.6 79.3123 30.008C79.3123 30.352 79.4443 30.524 79.7083 30.524C80.0043 30.524 80.3043 30.456 80.6083 30.32C80.9123 30.184 81.2083 30.02 81.4963 29.828C81.7843 29.628 82.0483 29.432 82.2883 29.24C82.5283 29.04 82.7323 28.872 82.9003 28.736C83.0683 28.6 83.1883 28.532 83.2603 28.532C83.3243 28.532 83.3803 28.552 83.4283 28.592C83.4763 28.632 83.5003 28.696 83.5003 28.784C83.5003 28.864 83.4203 29.008 83.2603 29.216C83.1003 29.424 82.8883 29.66 82.6243 29.924C82.3603 30.188 82.0643 30.444 81.7363 30.692C81.4083 30.94 81.0723 31.144 80.7283 31.304C80.3843 31.464 80.0563 31.544 79.7443 31.544C79.5043 31.544 79.2843 31.472 79.0843 31.328C78.8923 31.176 78.7363 30.92 78.6163 30.56C78.5043 30.2 78.4483 29.704 78.4483 29.072V28.772C78.0563 29.42 77.6443 30.012 77.2123 30.548C76.7883 31.084 76.3643 31.512 75.9403 31.832C75.5243 32.152 75.1283 32.312 74.7523 32.312ZM79.0483 26.504C79.0083 26.52 78.9523 26.544 78.8803 26.576C78.5123 26.744 78.1283 26.952 77.7283 27.2C77.3363 27.448 76.9523 27.724 76.5763 28.028C76.2083 28.332 75.8763 28.648 75.5803 28.976C75.2843 29.304 75.0483 29.636 74.8723 29.972C74.6963 30.308 74.6083 30.636 74.6083 30.956C74.6083 31.06 74.6283 31.14 74.6683 31.196C74.7163 31.252 74.7963 31.28 74.9083 31.28C75.0683 31.28 75.2763 31.18 75.5323 30.98C75.7883 30.772 76.0683 30.5 76.3723 30.164C76.6843 29.828 76.9963 29.456 77.3083 29.048C77.6203 28.64 77.9163 28.228 78.1963 27.812C78.4843 27.396 78.7323 27.012 78.9403 26.66C78.9723 26.604 79.0083 26.552 79.0483 26.504ZM84.69 32.168C84.298 32.168 83.958 32.08 83.67 31.904C83.39 31.72 83.174 31.484 83.022 31.196C82.87 30.908 82.794 30.612 82.794 30.308C82.794 29.668 82.906 29.084 83.13 28.556C83.354 28.02 83.634 27.548 83.97 27.14C84.314 26.724 84.666 26.372 85.026 26.084C85.394 25.796 85.726 25.58 86.022 25.436C86.326 25.284 86.542 25.208 86.67 25.208C86.926 25.208 87.054 25.336 87.054 25.592C87.054 25.712 86.974 25.852 86.814 26.012C86.654 26.164 86.45 26.344 86.202 26.552C85.954 26.76 85.69 26.996 85.41 27.26C85.13 27.516 84.866 27.808 84.618 28.136C84.37 28.456 84.166 28.816 84.006 29.216C83.846 29.608 83.766 30.04 83.766 30.512C83.766 30.992 83.962 31.232 84.354 31.232C84.714 31.232 85.082 31.164 85.458 31.028C85.842 30.892 86.218 30.716 86.586 30.5C86.962 30.276 87.322 30.044 87.666 29.804C88.01 29.564 88.322 29.336 88.602 29.12C88.882 28.896 89.118 28.716 89.31 28.58C89.502 28.444 89.638 28.376 89.718 28.376C89.878 28.376 89.958 28.464 89.958 28.64C89.958 28.776 89.866 28.956 89.682 29.18C89.498 29.404 89.25 29.648 88.938 29.912C88.626 30.176 88.278 30.444 87.894 30.716C87.51 30.98 87.122 31.224 86.73 31.448C86.338 31.664 85.962 31.84 85.602 31.976C85.25 32.104 84.946 32.168 84.69 32.168ZM91.2174 32.168C90.8254 32.168 90.4854 32.08 90.1974 31.904C89.9174 31.72 89.7014 31.484 89.5494 31.196C89.3974 30.908 89.3214 30.612 89.3214 30.308C89.3214 29.668 89.4334 29.084 89.6574 28.556C89.8814 28.02 90.1614 27.548 90.4974 27.14C90.8414 26.724 91.1934 26.372 91.5534 26.084C91.9214 25.796 92.2534 25.58 92.5494 25.436C92.8534 25.284 93.0694 25.208 93.1974 25.208C93.4534 25.208 93.5814 25.336 93.5814 25.592C93.5814 25.712 93.5014 25.852 93.3414 26.012C93.1814 26.164 92.9774 26.344 92.7294 26.552C92.4814 26.76 92.2174 26.996 91.9374 27.26C91.6574 27.516 91.3934 27.808 91.1454 28.136C90.8974 28.456 90.6934 28.816 90.5334 29.216C90.3734 29.608 90.2934 30.04 90.2934 30.512C90.2934 30.992 90.4894 31.232 90.8814 31.232C91.2414 31.232 91.6094 31.164 91.9854 31.028C92.3694 30.892 92.7454 30.716 93.1134 30.5C93.4894 30.276 93.8494 30.044 94.1934 29.804C94.5374 29.564 94.8494 29.336 95.1294 29.12C95.4094 28.896 95.6454 28.716 95.8374 28.58C96.0294 28.444 96.1654 28.376 96.2454 28.376C96.4054 28.376 96.4854 28.464 96.4854 28.64C96.4854 28.776 96.3934 28.956 96.2094 29.18C96.0254 29.404 95.7774 29.648 95.4654 29.912C95.1534 30.176 94.8054 30.444 94.4214 30.716C94.0374 30.98 93.6494 31.224 93.2574 31.448C92.8654 31.664 92.4894 31.84 92.1294 31.976C91.7774 32.104 91.4734 32.168 91.2174 32.168ZM97.5038 32.12C97.0318 32.12 96.6598 31.94 96.3878 31.58C96.1158 31.22 95.9798 30.752 95.9798 30.176C95.9798 29.968 96.0078 29.748 96.0638 29.516C96.1278 29.276 96.2078 29.06 96.3038 28.868C96.2478 28.812 96.2038 28.736 96.1718 28.64C96.1398 28.536 96.1238 28.408 96.1238 28.256C96.1238 27.784 96.2038 27.352 96.3638 26.96C96.5238 26.568 96.7358 26.228 96.9998 25.94C97.2638 25.644 97.5558 25.416 97.8758 25.256C98.2038 25.096 98.5358 25.016 98.8718 25.016C99.4238 25.016 99.8718 25.216 100.216 25.616C100.56 26.008 100.732 26.608 100.732 27.416C100.732 27.84 100.668 28.272 100.54 28.712C100.42 29.152 100.252 29.576 100.036 29.984C99.8278 30.392 99.5838 30.756 99.3038 31.076C99.0318 31.396 98.7398 31.652 98.4278 31.844C98.1238 32.028 97.8158 32.12 97.5038 32.12ZM97.0958 28.46C97.1438 28.524 97.1678 28.608 97.1678 28.712C97.1678 28.832 97.1438 28.952 97.0958 29.072C97.0558 29.192 97.0118 29.356 96.9638 29.564C96.9158 29.772 96.8918 30.068 96.8918 30.452C96.8918 30.836 97.0438 31.028 97.3478 31.028C97.6838 31.028 97.9958 30.896 98.2838 30.632C98.5718 30.36 98.8278 30.012 99.0518 29.588C99.2758 29.164 99.4478 28.712 99.5678 28.232C99.6958 27.744 99.7598 27.284 99.7598 26.852C99.7598 26.572 99.7078 26.376 99.6038 26.264C99.4998 26.144 99.3118 26.084 99.0398 26.084C98.7598 26.084 98.4678 26.18 98.1638 26.372C97.8678 26.556 97.6198 26.808 97.4198 27.128C97.2198 27.448 97.1198 27.808 97.1198 28.208C97.1198 28.296 97.1118 28.38 97.0958 28.46ZM109.362 32.432C109.13 32.432 108.966 32.356 108.87 32.204C108.774 32.052 108.726 31.792 108.726 31.424C108.726 31.128 108.762 30.76 108.834 30.32C108.914 29.88 109.01 29.396 109.122 28.868C109.234 28.332 109.35 27.78 109.47 27.212C108.982 27.876 108.442 28.408 107.85 28.808C107.266 29.2 106.618 29.456 105.906 29.576C105.738 29.968 105.546 30.324 105.33 30.644C105.114 30.964 104.878 31.22 104.622 31.412C104.366 31.604 104.098 31.7 103.818 31.7C103.474 31.7 103.182 31.56 102.942 31.28C102.71 31 102.594 30.592 102.594 30.056C102.594 29.688 102.642 29.36 102.738 29.072C102.834 28.776 102.942 28.564 103.062 28.436C102.95 28.14 102.894 27.8 102.894 27.416C102.894 26.944 103.002 26.528 103.218 26.168C103.434 25.8 103.722 25.516 104.082 25.316C104.442 25.108 104.83 25.004 105.246 25.004C105.582 25.004 105.882 25.16 106.146 25.472C106.41 25.784 106.542 26.232 106.542 26.816C106.542 27.36 106.446 27.964 106.254 28.628C106.694 28.46 107.134 28.204 107.574 27.86C108.022 27.516 108.454 27.104 108.87 26.624C109.286 26.144 109.662 25.612 109.998 25.028C110.086 24.884 110.21 24.812 110.37 24.812C110.514 24.812 110.626 24.856 110.706 24.944C110.794 25.024 110.838 25.136 110.838 25.28C110.838 25.32 110.814 25.456 110.766 25.688C110.726 25.92 110.67 26.216 110.598 26.576C110.534 26.936 110.462 27.332 110.382 27.764C110.302 28.196 110.222 28.632 110.142 29.072C110.07 29.512 110.01 29.92 109.962 30.296C110.146 29.944 110.354 29.56 110.586 29.144C110.818 28.728 111.054 28.32 111.294 27.92C111.542 27.512 111.778 27.14 112.002 26.804C112.234 26.468 112.438 26.2 112.614 26C112.798 25.792 112.942 25.688 113.046 25.688C113.238 25.688 113.406 25.752 113.55 25.88C113.694 26.008 113.766 26.14 113.766 26.276C113.766 26.46 113.746 26.74 113.706 27.116C113.666 27.484 113.618 27.9 113.562 28.364C113.506 28.828 113.45 29.292 113.394 29.756C113.338 30.22 113.29 30.64 113.25 31.016C113.21 31.392 113.19 31.672 113.19 31.856C113.19 31.976 113.138 32.084 113.034 32.18C112.93 32.276 112.814 32.324 112.686 32.324C112.598 32.324 112.522 32.296 112.458 32.24C112.402 32.192 112.358 32.08 112.326 31.904C112.294 31.728 112.278 31.456 112.278 31.088C112.278 30.728 112.29 30.336 112.314 29.912C112.338 29.48 112.37 29.052 112.41 28.628C112.458 28.196 112.51 27.808 112.566 27.464C112.382 27.768 112.17 28.132 111.93 28.556C111.698 28.98 111.454 29.416 111.198 29.864C110.942 30.312 110.694 30.732 110.454 31.124C110.214 31.516 109.998 31.832 109.806 32.072C109.614 32.312 109.466 32.432 109.362 32.432ZM105.198 28.82C105.294 28.516 105.37 28.192 105.426 27.848C105.49 27.496 105.522 27.144 105.522 26.792C105.522 26.584 105.482 26.416 105.402 26.288C105.322 26.16 105.214 26.096 105.078 26.096C104.87 26.096 104.666 26.156 104.466 26.276C104.266 26.388 104.098 26.548 103.962 26.756C103.834 26.964 103.77 27.212 103.77 27.5C103.77 27.86 103.906 28.168 104.178 28.424C104.458 28.672 104.798 28.804 105.198 28.82ZM104.874 29.648C104.33 29.624 103.89 29.464 103.554 29.168C103.538 29.272 103.522 29.372 103.506 29.468C103.49 29.556 103.482 29.644 103.482 29.732C103.482 29.98 103.522 30.176 103.602 30.32C103.69 30.456 103.822 30.524 103.998 30.524C104.142 30.524 104.29 30.444 104.442 30.284C104.594 30.124 104.738 29.912 104.874 29.648ZM115.858 27.188C115.674 27.188 115.582 27.088 115.582 26.888C115.582 26.768 115.618 26.632 115.69 26.48C115.77 26.328 115.858 26.148 115.954 25.94C116.05 25.732 116.134 25.492 116.206 25.22C116.286 24.948 116.326 24.64 116.326 24.296C116.326 24.184 116.318 24.072 116.302 23.96C116.294 23.84 116.29 23.728 116.29 23.624C116.29 23.2 116.338 22.928 116.434 22.808C116.53 22.68 116.666 22.616 116.842 22.616C117.002 22.616 117.138 22.688 117.25 22.832C117.362 22.976 117.418 23.244 117.418 23.636C117.418 24.116 117.358 24.572 117.238 25.004C117.118 25.428 116.97 25.804 116.794 26.132C116.618 26.46 116.442 26.72 116.266 26.912C116.098 27.096 115.962 27.188 115.858 27.188ZM120.283 32.264C120.107 32.264 119.971 32.212 119.875 32.108C119.787 32.012 119.743 31.9 119.743 31.772C119.743 31.66 119.791 31.556 119.887 31.46C119.991 31.356 120.131 31.264 120.307 31.184C120.627 31.016 120.927 30.848 121.207 30.68C121.495 30.512 121.727 30.332 121.903 30.14C122.079 29.948 122.167 29.744 122.167 29.528C122.167 29.344 122.107 29.204 121.987 29.108C121.867 29.004 121.703 28.952 121.495 28.952C121.375 28.952 121.207 28.976 120.991 29.024C120.775 29.064 120.539 29.112 120.283 29.168C120.035 29.216 119.791 29.264 119.551 29.312C119.311 29.352 119.107 29.372 118.939 29.372C118.635 29.372 118.407 29.3 118.255 29.156C118.103 29.004 118.027 28.8 118.027 28.544C118.027 28.416 118.103 28.224 118.255 27.968C118.407 27.712 118.607 27.428 118.855 27.116C119.111 26.796 119.391 26.476 119.695 26.156C119.999 25.836 120.307 25.54 120.619 25.268C120.939 24.996 121.235 24.776 121.507 24.608C121.787 24.44 122.019 24.356 122.203 24.356C122.387 24.356 122.527 24.416 122.623 24.536C122.719 24.656 122.767 24.808 122.767 24.992C122.767 25.136 122.743 25.26 122.695 25.364C122.647 25.46 122.547 25.536 122.395 25.592C122.251 25.648 122.027 25.68 121.723 25.688C121.411 25.936 121.079 26.22 120.727 26.54C120.383 26.852 120.067 27.176 119.779 27.512C119.499 27.84 119.295 28.156 119.167 28.46C119.431 28.372 119.751 28.296 120.127 28.232C120.511 28.16 120.899 28.124 121.291 28.124C121.907 28.124 122.363 28.264 122.659 28.544C122.963 28.816 123.115 29.176 123.115 29.624C123.115 29.912 123.023 30.212 122.839 30.524C122.663 30.828 122.431 31.112 122.143 31.376C121.855 31.64 121.547 31.852 121.219 32.012C120.891 32.18 120.579 32.264 120.283 32.264ZM80.428 49.264C80.252 49.264 80.116 49.212 80.02 49.108C79.932 49.012 79.888 48.9 79.888 48.772C79.888 48.66 79.936 48.556 80.032 48.46C80.136 48.356 80.276 48.264 80.452 48.184C80.772 48.016 81.072 47.848 81.352 47.68C81.64 47.512 81.872 47.332 82.048 47.14C82.224 46.948 82.312 46.744 82.312 46.528C82.312 46.344 82.252 46.204 82.132 46.108C82.012 46.004 81.848 45.952 81.64 45.952C81.52 45.952 81.352 45.976 81.136 46.024C80.92 46.064 80.684 46.112 80.428 46.168C80.18 46.216 79.936 46.264 79.696 46.312C79.456 46.352 79.252 46.372 79.084 46.372C78.78 46.372 78.552 46.3 78.4 46.156C78.248 46.004 78.172 45.8 78.172 45.544C78.172 45.416 78.248 45.224 78.4 44.968C78.552 44.712 78.752 44.428 79 44.116C79.256 43.796 79.536 43.476 79.84 43.156C80.144 42.836 80.452 42.54 80.764 42.268C81.084 41.996 81.38 41.776 81.652 41.608C81.932 41.44 82.164 41.356 82.348 41.356C82.532 41.356 82.672 41.416 82.768 41.536C82.864 41.656 82.912 41.808 82.912 41.992C82.912 42.136 82.888 42.26 82.84 42.364C82.792 42.46 82.692 42.536 82.54 42.592C82.396 42.648 82.172 42.68 81.868 42.688C81.556 42.936 81.224 43.22 80.872 43.54C80.528 43.852 80.212 44.176 79.924 44.512C79.644 44.84 79.44 45.156 79.312 45.46C79.576 45.372 79.896 45.296 80.272 45.232C80.656 45.16 81.044 45.124 81.436 45.124C82.052 45.124 82.508 45.264 82.804 45.544C83.108 45.816 83.26 46.176 83.26 46.624C83.26 46.912 83.168 47.212 82.984 47.524C82.808 47.828 82.576 48.112 82.288 48.376C82 48.64 81.692 48.852 81.364 49.012C81.036 49.18 80.724 49.264 80.428 49.264ZM85.0875 49.54C84.9115 49.54 84.7755 49.488 84.6795 49.384C84.5835 49.288 84.5355 49.044 84.5355 48.652C84.5355 48.292 84.5995 47.824 84.7275 47.248C84.8555 46.664 85.0275 46.016 85.2435 45.304C85.4595 44.592 85.7035 43.856 85.9755 43.096C86.2475 42.328 86.5315 41.576 86.8275 40.84C87.1315 40.096 87.4235 39.416 87.7035 38.8C87.8075 38.576 87.9155 38.42 88.0275 38.332C88.1395 38.244 88.2715 38.2 88.4235 38.2C88.5275 38.2 88.6155 38.232 88.6875 38.296C88.7675 38.352 88.8075 38.448 88.8075 38.584C88.8075 38.632 88.7555 38.788 88.6515 39.052C88.5555 39.316 88.4195 39.664 88.2435 40.096C88.0755 40.528 87.8875 41.012 87.6795 41.548C87.4715 42.084 87.2595 42.648 87.0435 43.24C86.8275 43.832 86.6235 44.428 86.4315 45.028C86.2395 45.62 86.0755 46.188 85.9395 46.732C85.8035 47.276 85.7115 47.764 85.6635 48.196C85.8555 47.964 86.0755 47.668 86.3235 47.308C86.5715 46.948 86.8355 46.56 87.1155 46.144C87.3955 45.728 87.6795 45.316 87.9675 44.908C88.2555 44.5 88.5395 44.128 88.8195 43.792C89.0995 43.456 89.3595 43.188 89.5995 42.988C89.8475 42.78 90.0635 42.676 90.2475 42.676C90.5515 42.676 90.7955 42.772 90.9795 42.964C91.1715 43.148 91.2675 43.452 91.2675 43.876C91.2675 44.116 91.2195 44.404 91.1235 44.74C91.0355 45.076 90.9315 45.428 90.8115 45.796C90.6915 46.164 90.5835 46.516 90.4875 46.852C90.3995 47.188 90.3555 47.476 90.3555 47.716C90.3555 48.044 90.4795 48.208 90.7275 48.208C91.1115 48.208 91.4955 48.124 91.8795 47.956C92.2715 47.788 92.6435 47.58 92.9955 47.332C93.3475 47.076 93.6715 46.82 93.9675 46.564C94.2635 46.3 94.5155 46.076 94.7235 45.892C94.9475 45.692 95.1355 45.592 95.2875 45.592C95.4795 45.592 95.5755 45.692 95.5755 45.892C95.5755 45.948 95.5635 46.012 95.5395 46.084C95.5155 46.156 95.4515 46.248 95.3475 46.36C95.2195 46.504 95.0355 46.692 94.7955 46.924C94.5635 47.156 94.2915 47.404 93.9795 47.668C93.6755 47.932 93.3435 48.18 92.9835 48.412C92.6315 48.644 92.2675 48.836 91.8915 48.988C91.5235 49.132 91.1635 49.204 90.8115 49.204C90.3315 49.204 89.9595 49.068 89.6955 48.796C89.4395 48.516 89.3115 48.132 89.3115 47.644C89.3115 47.34 89.3595 46.972 89.4555 46.54C89.5515 46.108 89.6715 45.652 89.8155 45.172C89.9675 44.684 90.1195 44.208 90.2715 43.744C90.0155 43.92 89.7355 44.184 89.4315 44.536C89.1355 44.88 88.8235 45.272 88.4955 45.712C88.1675 46.144 87.8395 46.584 87.5115 47.032C87.1915 47.48 86.8795 47.896 86.5755 48.28C86.2795 48.656 86.0035 48.96 85.7475 49.192C85.4915 49.424 85.2715 49.54 85.0875 49.54ZM96.5546 49.12C96.0826 49.12 95.7106 48.94 95.4386 48.58C95.1666 48.22 95.0306 47.752 95.0306 47.176C95.0306 46.968 95.0586 46.748 95.1146 46.516C95.1786 46.276 95.2586 46.06 95.3546 45.868C95.2986 45.812 95.2546 45.736 95.2226 45.64C95.1906 45.536 95.1746 45.408 95.1746 45.256C95.1746 44.784 95.2546 44.352 95.4146 43.96C95.5746 43.568 95.7866 43.228 96.0506 42.94C96.3146 42.644 96.6066 42.416 96.9266 42.256C97.2546 42.096 97.5866 42.016 97.9226 42.016C98.4746 42.016 98.9226 42.216 99.2666 42.616C99.6106 43.008 99.7826 43.608 99.7826 44.416C99.7826 44.84 99.7186 45.272 99.5906 45.712C99.4706 46.152 99.3026 46.576 99.0866 46.984C98.8786 47.392 98.6346 47.756 98.3546 48.076C98.0826 48.396 97.7906 48.652 97.4786 48.844C97.1746 49.028 96.8666 49.12 96.5546 49.12ZM96.1466 45.46C96.1946 45.524 96.2186 45.608 96.2186 45.712C96.2186 45.832 96.1946 45.952 96.1466 46.072C96.1066 46.192 96.0626 46.356 96.0146 46.564C95.9666 46.772 95.9426 47.068 95.9426 47.452C95.9426 47.836 96.0946 48.028 96.3986 48.028C96.7346 48.028 97.0466 47.896 97.3346 47.632C97.6226 47.36 97.8786 47.012 98.1026 46.588C98.3266 46.164 98.4986 45.712 98.6186 45.232C98.7466 44.744 98.8106 44.284 98.8106 43.852C98.8106 43.572 98.7586 43.376 98.6546 43.264C98.5506 43.144 98.3626 43.084 98.0906 43.084C97.8106 43.084 97.5186 43.18 97.2146 43.372C96.9186 43.556 96.6706 43.808 96.4706 44.128C96.2706 44.448 96.1706 44.808 96.1706 45.208C96.1706 45.296 96.1626 45.38 96.1466 45.46ZM101.315 52.564C101.179 52.564 101.071 52.516 100.991 52.42C100.919 52.324 100.883 52.14 100.883 51.868C100.883 51.476 100.911 51.02 100.967 50.5C101.023 49.98 101.099 49.428 101.195 48.844C101.299 48.26 101.411 47.676 101.531 47.092C101.659 46.508 101.791 45.952 101.927 45.424C102.071 44.896 102.211 44.428 102.347 44.02C102.483 43.604 102.607 43.276 102.719 43.036C102.839 42.796 102.943 42.676 103.031 42.676C103.183 42.676 103.303 42.72 103.391 42.808C103.487 42.896 103.535 43.028 103.535 43.204C103.535 43.428 103.467 43.792 103.331 44.296C103.195 44.792 103.019 45.44 102.803 46.24C103.003 45.872 103.219 45.488 103.451 45.088C103.683 44.688 103.927 44.3 104.183 43.924C104.439 43.54 104.695 43.196 104.951 42.892C105.215 42.588 105.471 42.344 105.719 42.16C105.967 41.976 106.207 41.884 106.439 41.884C106.687 41.884 106.907 41.964 107.099 42.124C107.291 42.276 107.439 42.484 107.543 42.748C107.655 43.004 107.711 43.292 107.711 43.612C107.711 44.276 107.599 44.92 107.375 45.544C107.151 46.16 106.839 46.716 106.439 47.212C106.047 47.7 105.583 48.088 105.047 48.376C104.519 48.664 103.947 48.808 103.331 48.808C103.099 48.808 102.891 48.796 102.707 48.772C102.523 48.748 102.363 48.72 102.227 48.688C102.131 49.216 102.039 49.76 101.951 50.32C101.863 50.88 101.775 51.476 101.687 52.108C101.663 52.276 101.623 52.392 101.567 52.456C101.511 52.528 101.427 52.564 101.315 52.564ZM106.655 42.796C106.487 42.796 106.287 42.892 106.055 43.084C105.831 43.276 105.587 43.532 105.323 43.852C105.067 44.164 104.807 44.512 104.543 44.896C104.279 45.272 104.023 45.656 103.775 46.048C103.527 46.44 103.299 46.804 103.091 47.14C102.891 47.476 102.727 47.756 102.599 47.98C103.223 47.964 103.771 47.84 104.243 47.608C104.715 47.368 105.119 47.064 105.455 46.696C105.791 46.32 106.063 45.916 106.271 45.484C106.487 45.044 106.643 44.62 106.739 44.212C106.835 43.796 106.883 43.436 106.883 43.132C106.883 42.908 106.807 42.796 106.655 42.796Z" fill="#524E73"/>
</g>
<defs>
<radialGradient id="paint0_radial_141_2" cx="0" cy="0" r="1" gradientUnits="userSpaceOnUse" gradientTransform="translate(95 95) rotate(90.3016) scale(95.0013 94.5013)">
<stop offset="0.197917" stop-color="#78BEE6"/>
<stop offset="1" stop-color="#EE9BF1"/>
</radialGradient>
<radialGradient id="paint1_radial_141_2" cx="0" cy="0" r="1" gradientUnits="userSpaceOnUse" gradientTransform="translate(74 159) rotate(90) scale(3)">
<stop stop-color="#E6F4FF"/>
<stop offset="1" stop-color="#EE9BF1"/>
</radialGradient>
<radialGradient id="paint2_radial_141_2" cx="0" cy="0" r="1" gradientUnits="userSpaceOnUse" gradientTransform="translate(108 160) rotate(90) scale(3)">
<stop stop-color="#E6F4FF"/>
<stop offset="1" stop-color="#EE9BF1"/>
</radialGradient>
<radialGradient id="paint3_radial_141_2" cx="0" cy="0" r="1" gradientUnits="userSpaceOnUse" gradientTransform="translate(91 164) rotate(90) scale(3)">
<stop stop-color="#E6F4FF"/>
<stop offset="1" stop-color="#EE9BF1"/>
</radialGradient>
<clipPath id="clip0_141_2">
<rect width="189" height="190" fill="white"/>
</clipPath>
</defs>
</svg>
