<svg width="38" height="38" viewBox="0 0 38 38" fill="none" xmlns="http://www.w3.org/2000/svg">
<rect width="38" height="38" fill="none"/>
<path fill-rule="evenodd" clip-rule="evenodd" d="M36.5935 7.11627C37.0968 4.66247 34.6867 2.62331 32.3502 3.52608L3.70893 14.592C1.09962 15.6002 0.98336 19.2489 3.52317 20.421L9.76043 23.2999L12.7276 33.6848C12.8817 34.2242 13.3098 34.6419 13.8528 34.7827C14.3959 34.9233 14.9729 34.7662 15.3696 34.3694L19.9402 29.7988L26.3427 34.6007C28.2012 35.9945 30.878 34.9793 31.3447 32.7036L36.5935 7.11627ZM4.8502 17.5459L33.4914 6.47994L28.2427 32.0674L20.7416 26.4415C20.1113 25.9687 19.2292 26.0314 18.6721 26.5886L16.7144 28.5462L17.3026 25.3113L28.8279 13.7861C29.3889 13.2252 29.4481 12.3358 28.9666 11.7055C28.4851 11.0751 27.6116 10.8983 26.9228 11.2918L11.0061 20.387L4.8502 17.5459ZM12.9468 22.9252L13.9069 26.2857L14.2755 24.2582C14.3331 23.9414 14.486 23.6496 14.7137 23.4219L18.2286 19.9072L12.9468 22.9252Z" fill="#c5bbda"/>
</svg>
